
<svg xmlns="http://www.w3.org/2000/svg" xmlns:xlink="http://www.w3.org/1999/xlink" version="1.1" x="0px" y="0px" viewBox="15 25 70 55" enable-background="new 0 0 100 100" xml:space="preserve"><g><circle fill="#ffffff" cx="57.007" cy="58.239" r="1.601"/><circle fill="#ffffff" cx="44.008" cy="58.239" r="1.601"/><path fill="#ffffff" d="M61.658,32.901c0.654-1.496,0.764-2.438,0.373-3.072c-0.149-0.243-0.51-0.65-1.245-0.65c-0.604,0-1.735,0.247-4.575,2.323   c-0.068-0.012-0.136-0.023-0.204-0.035c1.138-3.874,0.845-5.048,0.39-5.67c-0.289-0.394-0.723-0.61-1.222-0.61   c-1.396,0-3.729,1.99-6.939,5.916c-14.313,0.933-25.468,10.63-25.468,22.211c0,10.607,9.27,19.5,21.638,21.74   c1.862,2.73,4.313,5.032,6.535,5.032c2.359,0,4.834-2.532,6.592-5.228c11.9-2.508,20.715-11.205,20.715-21.545   C78.247,44.382,71.77,36.457,61.658,32.901z M56.714,72.889c-1.847,3.221-4.22,5.469-5.772,5.469c-1.759,0-4.701-3.024-6.558-6.743   c-1.388-2.78-1.796-5.226-1.041-6.23c0.992-1.317,4.262-2.239,7.954-2.239c3.544,0,6.434,0.866,7.188,2.156   C59.253,66.609,58.523,69.73,56.714,72.889z M58.721,72.809c1.467-2.869,2.456-6.332,1.258-8.382   c-1.637-2.795-7.06-3.013-8.682-3.013c-3.291,0-7.709,0.768-9.335,2.93c-1.703,2.264,0.045,6.379,0.875,8.042   c0.105,0.212,0.217,0.425,0.332,0.638C32.393,70.51,24.496,62.636,24.496,53.314c0-10.768,10.637-19.775,24.216-20.509l0.384-0.021   l0.242-0.299c3.046-3.766,5.021-5.339,5.702-5.546c0.077,0.348,0.123,1.511-0.978,4.974L53.749,32.9l1.026,0.132   c0.504,0.065,1.002,0.146,1.496,0.236l0.369,0.067l0.301-0.224c2.07-1.542,3.105-2.006,3.562-2.144   c-0.063,0.321-0.254,0.942-0.813,2.056l-0.457,0.906l0.967,0.307c9.914,3.154,16.32,10.643,16.32,19.079   C76.52,62.383,69.046,70.082,58.721,72.809z"/><path fill="#ffffff" d="M48.734,66.38c-0.158-0.382-0.595-0.562-0.979-0.405c-0.383,0.158-0.565,0.598-0.406,0.979l0.5,1.208   c0.12,0.289,0.399,0.463,0.693,0.463c0.095,0,0.192-0.02,0.286-0.057c0.383-0.159,0.565-0.598,0.406-0.98L48.734,66.38z"/><path fill="#ffffff" d="M53.766,65.975c-0.382-0.154-0.82,0.022-0.979,0.405l-0.5,1.208c-0.158,0.383,0.022,0.821,0.405,0.98   c0.095,0.037,0.191,0.057,0.287,0.057c0.295,0,0.573-0.174,0.693-0.463l0.5-1.208C54.33,66.57,54.148,66.133,53.766,65.975z"/></g></svg>